Ubuntu-Light.ufo
<glyph name="six" format="2">
  <advance width="564"/>
  <unicode hex="0036"/>
  <outline>
    <contour>
      <point x="299" y="-15" type="curve" smooth="yes"/>
      <point x="440" y="-15"/>
      <point x="504" y="102"/>
      <point x="504" y="205" type="curve" smooth="yes"/>
      <point x="504" y="316"/>
      <point x="449" y="416"/>
      <point x="300" y="416" type="curve" smooth="yes"/>
      <point x="243" y="416"/>
      <point x="190" y="399"/>
      <point x="154" y="381" type="curve"/>
      <point x="182" y="568"/>
      <point x="300" y="631"/>
      <point x="462" y="641" type="curve"/>
      <point x="458" y="696" type="line"/>
      <point x="212" y="686"/>
      <point x="77" y="544"/>
      <point x="77" y="275" type="curve" smooth="yes"/>
      <point x="77" y="93"/>
      <point x="154" y="-15"/>
    </contour>
    <contour>
      <point x="298" y="42" type="curve" smooth="yes"/>
      <point x="178" y="42"/>
      <point x="147" y="149"/>
      <point x="147" y="274" type="curve" smooth="yes"/>
      <point x="147" y="292"/>
      <point x="147" y="302"/>
      <point x="149" y="324" type="curve"/>
      <point x="189" y="343"/>
      <point x="233" y="359"/>
      <point x="294" y="359" type="curve"/>
      <point x="385" y="359"/>
      <point x="434" y="309"/>
      <point x="434" y="203" type="curve" smooth="yes"/>
      <point x="434" y="119"/>
      <point x="397" y="42"/>
    </contour>
  </outline>
</glyph>
<glyph name="E" format="2">
  <advance width="555"/>
  <unicode hex="0045"/>
  <anchor x="278" y="0" name="bottom"/>
  <anchor x="500" y="10" name="ogonek"/>
  <anchor x="278" y="693" name="top"/>
  <anchor x="20" y="693" name="topleft"/>
  <outline>
    <contour>
      <point x="90" y="0" type="line"/>
      <point x="516" y="0" type="line"/>
      <point x="516" y="59" type="line"/>
      <point x="158" y="59" type="line"/>
      <point x="158" y="335" type="line"/>
      <point x="454" y="335" type="line"/>
      <point x="454" y="393" type="line"/>
      <point x="158" y="393" type="line"/>
      <point x="158" y="634" type="line"/>
      <point x="490" y="634" type="line"/>
      <point x="490" y="693" type="line"/>
      <point x="90" y="693" type="line"/>
    </contour>
  </outline>
</glyph>
<glyph name="J" format="2">
  <advance width="487"/>
  <unicode hex="004A"/>
  <anchor x="244" y="0" name="bottom"/>
  <anchor x="244" y="693" name="top"/>
  <outline>
    <contour>
      <point x="189" y="-15" type="curve" smooth="yes"/>
      <point x="351" y="-15"/>
      <point x="400" y="85"/>
      <point x="400" y="218" type="curve" smooth="yes"/>
      <point x="400" y="693" type="line"/>
      <point x="332" y="693" type="line"/>
      <point x="332" y="225" type="line" smooth="yes"/>
      <point x="332" y="95"/>
      <point x="284" y="46"/>
      <point x="182" y="46" type="curve" smooth="yes"/>
      <point x="112" y="46"/>
      <point x="65" y="77"/>
      <point x="40" y="99" type="curve"/>
      <point x="8" y="44" type="line"/>
      <point x="29" y="23"/>
      <point x="93" y="-15"/>
    </contour>
  </outline>
</glyph>
<glyph name="L" format="2">
  <advance width="502"/>
  <unicode hex="004C"/>
  <anchor x="251" y="0" name="bottom"/>
  <anchor x="251" y="347" name="center"/>
  <anchor x="251" y="693" name="top"/>
  <anchor x="482" y="693" name="topright"/>
  <outline>
    <contour>
      <point x="90" y="0" type="line"/>
      <point x="484" y="0" type="line"/>
      <point x="484" y="59" type="line"/>
      <point x="158" y="59" type="line"/>
      <point x="158" y="693" type="line"/>
      <point x="90" y="693" type="line"/>
    </contour>
  </outline>
</glyph>
<glyph name="T" format="2">
  <advance width="548"/>
  <unicode hex="0054"/>
  <anchor x="274" y="0" name="bottom"/>
  <anchor x="274" y="347" name="center"/>
  <anchor x="274" y="693" name="top"/>
  <outline>
    <contour>
      <point x="240" y="0" type="line"/>
      <point x="308" y="0" type="line"/>
      <point x="308" y="634" type="line"/>
      <point x="530" y="634" type="line"/>
      <point x="530" y="693" type="line"/>
      <point x="18" y="693" type="line"/>
      <point x="18" y="634" type="line"/>
      <point x="240" y="634" type="line"/>
    </contour>
  </outline>
</glyph>
<glyph name="X" format="2">
  <advance width="608"/>
  <unicode hex="0058"/>
  <anchor x="304" y="0" name="bottom"/>
  <anchor x="304" y="693" name="top"/>
  <outline>
    <contour>
      <point x="27" y="0" type="curve"/>
      <point x="98" y="0" type="line"/>
      <point x="137" y="79"/>
      <point x="230" y="218"/>
      <point x="301" y="318" type="curve"/>
      <point x="372" y="218"/>
      <point x="465" y="79"/>
      <point x="504" y="0" type="curve"/>
      <point x="578" y="0" type="line"/>
      <point x="517" y="121"/>
      <point x="429" y="246"/>
      <point x="343" y="368" type="curve"/>
      <point x="566" y="693" type="line"/>
      <point x="490" y="693" type="line"/>
      <point x="303" y="414" type="line"/>
      <point x="116" y="693" type="line"/>
      <point x="38" y="693" type="line"/>
      <point x="261" y="366" type="line"/>
      <point x="176" y="246"/>
      <point x="88" y="121"/>
    </contour>
  </outline>
</glyph>
<glyph name="o" format="2">
  <advance width="582"/>
  <unicode hex="006F"/>
  <anchor x="291" y="0" name="bottom"/>
  <anchor x="291" y="259" name="center"/>
  <anchor x="524" y="10" name="ogonek"/>
  <anchor x="291" y="517" name="top"/>
  <anchor x="562" y="517" name="topright"/>
  <outline>
    <contour>
      <point x="291" y="-12" type="curve" smooth="yes"/>
      <point x="429" y="-12"/>
      <point x="527" y="95"/>
      <point x="527" y="258" type="curve" smooth="yes"/>
      <point x="527" y="421"/>
      <point x="429" y="529"/>
      <point x="291" y="529" type="curve" smooth="yes"/>
      <point x="153" y="529"/>
      <point x="55" y="421"/>
      <point x="55" y="258" type="curve" smooth="yes"/>
      <point x="55" y="95"/>
      <point x="153" y="-12"/>
    </contour>
    <contour>
      <point x="291" y="47" type="curve" smooth="yes"/>
      <point x="189" y="47"/>
      <point x="124" y="129"/>
      <point x="124" y="258" type="curve" smooth="yes"/>
      <point x="124" y="387"/>
      <point x="189" y="470"/>
      <point x="291" y="470" type="curve" smooth="yes"/>
      <point x="393" y="470"/>
      <point x="458" y="387"/>
      <point x="458" y="258" type="curve" smooth="yes"/>
      <point x="458" y="129"/>
      <point x="393" y="47"/>
    </contour>
  </outline>
</glyph>
<glyph name="yen" format="2">
  <advance width="564"/>
  <unicode hex="00A5"/>
  <outline>
    <contour>
      <point x="250" y="0" type="line"/>
      <point x="315" y="0" type="line"/>
      <point x="315" y="115" type="line"/>
      <point x="478" y="115" type="line"/>
      <point x="478" y="168" type="line"/>
      <point x="315" y="168" type="line"/>
      <point x="315" y="287" type="line"/>
      <point x="478" y="287" type="line"/>
      <point x="478" y="340" type="line"/>
      <point x="327" y="340" type="line"/>
      <point x="406" y="463"/>
      <point x="476" y="578"/>
      <point x="533" y="693" type="curve"/>
      <point x="467" y="693" type="line"/>
      <point x="415" y="583"/>
      <point x="351" y="472"/>
      <point x="284" y="371" type="curve"/>
      <point x="216" y="472"/>
      <point x="152" y="583"/>
      <point x="100" y="693" type="curve"/>
      <point x="31" y="693" type="line"/>
      <point x="88" y="578"/>
      <point x="157" y="463"/>
      <point x="236" y="340" type="curve"/>
      <point x="87" y="340" type="line"/>
      <point x="87" y="287" type="line"/>
      <point x="250" y="287" type="line"/>
      <point x="250" y="168" type="line"/>
      <point x="87" y="168" type="line"/>
      <point x="87" y="115" type="line"/>
      <point x="250" y="115" type="line"/>
    </contour>
  </outline>
</glyph>
<glyph name="copyright" format="2">
  <advance width="826"/>
  <unicode hex="00A9"/>
  <outline>
    <contour>
      <point x="413" y="-15" type="curve" smooth="yes"/>
      <point x="592" y="-15"/>
      <point x="752" y="119"/>
      <point x="752" y="347" type="curve"/>
      <point x="752" y="575"/>
      <point x="592" y="708"/>
      <point x="413" y="708" type="curve"/>
      <point x="234" y="708"/>
      <point x="74" y="575"/>
      <point x="74" y="347" type="curve" smooth="yes"/>
      <point x="74" y="119"/>
      <point x="234" y="-15"/>
    </contour>
    <contour>
      <point x="418" y="142" type="curve"/>
      <point x="483" y="142"/>
      <point x="529" y="163"/>
      <point x="546" y="173" type="curve"/>
      <point x="529" y="221" type="line"/>
      <point x="514" y="212"/>
      <point x="483" y="195"/>
      <point x="426" y="195" type="curve" smooth="yes"/>
      <point x="345" y="195"/>
      <point x="294" y="250"/>
      <point x="294" y="348" type="curve" smooth="yes"/>
      <point x="294" y="443"/>
      <point x="349" y="498"/>
      <point x="422" y="498" type="curve" smooth="yes"/>
      <point x="475" y="498"/>
      <point x="504" y="482"/>
      <point x="524" y="471" type="curve"/>
      <point x="543" y="516" type="line"/>
      <point x="528" y="527"/>
      <point x="487" y="551"/>
      <point x="422" y="551" type="curve" smooth="yes"/>
      <point x="324" y="551"/>
      <point x="234" y="476"/>
      <point x="234" y="348" type="curve" smooth="yes"/>
      <point x="234" y="217"/>
      <point x="314" y="142"/>
    </contour>
    <contour>
      <point x="413" y="38" type="curve" smooth="yes"/>
      <point x="250" y="38"/>
      <point x="133" y="162"/>
      <point x="133" y="347" type="curve"/>
      <point x="133" y="532"/>
      <point x="250" y="655"/>
      <point x="413" y="655" type="curve" smooth="yes"/>
      <point x="576" y="655"/>
      <point x="693" y="532"/>
      <point x="693" y="347" type="curve"/>
      <point x="693" y="162"/>
      <point x="576" y="38"/>
    </contour>
  </outline>
</glyph>
<glyph name="twosuperior" format="2">
  <advance width="359"/>
  <unicode hex="00B2"/>
  <outline>
    <contour>
      <point x="55" y="317" type="curve"/>
      <point x="303" y="317" type="line"/>
      <point x="303" y="365" type="line"/>
      <point x="112" y="365" type="line"/>
      <point x="112" y="389"/>
      <point x="128" y="415"/>
      <point x="197" y="471" type="curve"/>
      <point x="242" y="507"/>
      <point x="284" y="543"/>
      <point x="284" y="600" type="curve"/>
      <point x="284" y="672"/>
      <point x="240" y="708"/>
      <point x="166" y="708" type="curve" smooth="yes"/>
      <point x="107" y="708"/>
      <point x="66" y="683"/>
      <point x="43" y="659" type="curve"/>
      <point x="70" y="621" type="line"/>
      <point x="81" y="632"/>
      <point x="117" y="660"/>
      <point x="161" y="660" type="curve" smooth="yes"/>
      <point x="197" y="660"/>
      <point x="228" y="646"/>
      <point x="228" y="602" type="curve" smooth="yes"/>
      <point x="228" y="556"/>
      <point x="198" y="536"/>
      <point x="161" y="503" type="curve" smooth="yes"/>
      <point x="112" y="459"/>
      <point x="54" y="418"/>
      <point x="54" y="337" type="curve" smooth="yes"/>
      <point x="54" y="330"/>
      <point x="54" y="324"/>
    </contour>
  </outline>
</glyph>
<glyph name="paragraph" format="2">
  <advance width="616"/>
  <unicode hex="00B6"/>
  <outline>
    <contour>
      <point x="288" y="-185" type="line"/>
      <point x="346" y="-185" type="line"/>
      <point x="346" y="641" type="line"/>
      <point x="373" y="645"/>
      <point x="430" y="643"/>
      <point x="457" y="638" type="curve"/>
      <point x="457" y="-185" type="line"/>
      <point x="515" y="-185" type="line"/>
      <point x="515" y="686" type="line"/>
      <point x="468" y="697"/>
      <point x="406" y="699"/>
      <point x="364" y="699" type="curve" smooth="yes"/>
      <point x="177" y="699"/>
      <point x="46" y="627"/>
      <point x="46" y="480" type="curve" smooth="yes"/>
      <point x="46" y="342"/>
      <point x="141" y="276"/>
      <point x="288" y="264" type="curve"/>
    </contour>
  </outline>
</glyph>
<glyph name="onesuperior" format="2">
  <advance width="359"/>
  <unicode hex="00B9"/>
  <outline>
    <contour>
      <point x="174" y="317" type="line"/>
      <point x="228" y="317" type="line"/>
      <point x="228" y="699" type="line"/>
      <point x="191" y="699" type="line"/>
      <point x="158" y="661"/>
      <point x="108" y="634"/>
      <point x="61" y="620" type="curve"/>
      <point x="74" y="578" type="line"/>
      <point x="93" y="582"/>
      <point x="144" y="600"/>
      <point x="174" y="621" type="curve"/>
    </contour>
  </outline>
</glyph>
<glyph name="ordmasculine" format="2">
  <advance width="437"/>
  <unicode hex="00BA"/>
  <outline>
    <contour>
      <point x="218" y="331" type="curve" smooth="yes"/>
      <point x="318" y="331"/>
      <point x="391" y="406"/>
      <point x="391" y="518" type="curve" smooth="yes"/>
      <point x="391" y="630"/>
      <point x="318" y="705"/>
      <point x="218" y="705" type="curve" smooth="yes"/>
      <point x="119" y="705"/>
      <point x="46" y="630"/>
      <point x="46" y="518" type="curve" smooth="yes"/>
      <point x="46" y="406"/>
      <point x="119" y="331"/>
    </contour>
    <contour>
      <point x="218" y="380" type="curve" smooth="yes"/>
      <point x="150" y="380"/>
      <point x="105" y="434"/>
      <point x="105" y="518" type="curve" smooth="yes"/>
      <point x="105" y="601"/>
      <point x="150" y="656"/>
      <point x="218" y="656" type="curve" smooth="yes"/>
      <point x="287" y="656"/>
      <point x="332" y="601"/>
      <point x="332" y="518" type="curve" smooth="yes"/>
      <point x="332" y="434"/>
      <point x="287" y="380"/>
    </contour>
  </outline>
</glyph>
<glyph name="Eth" format="2">
  <advance width="716"/>
  <unicode hex="00D0"/>
  <outline>
    <contour>
      <point x="273" y="-6" type="curve" smooth="yes"/>
      <point x="497" y="-6"/>
      <point x="654" y="111"/>
      <point x="654" y="347" type="curve" smooth="yes"/>
      <point x="654" y="582"/>
      <point x="497" y="699"/>
      <point x="273" y="699" type="curve" smooth="yes"/>
      <point x="217" y="699"/>
      <point x="150" y="693"/>
      <point x="104" y="680" type="curve"/>
      <point x="104" y="390" type="line"/>
      <point x="24" y="390" type="line"/>
      <point x="24" y="335" type="line"/>
      <point x="104" y="335" type="line"/>
      <point x="104" y="12" type="line"/>
      <point x="150" y="0"/>
      <point x="217" y="-6"/>
    </contour>
    <contour>
      <point x="281" y="53" type="curve" smooth="yes"/>
      <point x="209" y="53"/>
      <point x="180" y="59"/>
      <point x="172" y="60" type="curve"/>
      <point x="172" y="335" type="line"/>
      <point x="304" y="335" type="line"/>
      <point x="304" y="390" type="line"/>
      <point x="172" y="390" type="line"/>
      <point x="172" y="633" type="line"/>
      <point x="180" y="634"/>
      <point x="209" y="640"/>
      <point x="281" y="640" type="curve" smooth="yes"/>
      <point x="480" y="640"/>
      <point x="582" y="528"/>
      <point x="582" y="347" type="curve" smooth="yes"/>
      <point x="582" y="165"/>
      <point x="480" y="53"/>
    </contour>
  </outline>
</glyph>
<glyph name="Hbar" format="2">
  <advance width="720"/>
  <unicode hex="0126"/>
  <outline>
    <contour>
      <point x="104" y="0" type="line"/>
      <point x="172" y="0" type="line"/>
      <point x="172" y="333" type="line"/>
      <point x="548" y="333" type="line"/>
      <point x="548" y="0" type="line"/>
      <point x="616" y="0" type="line"/>
      <point x="616" y="532" type="line"/>
      <point x="696" y="532" type="line"/>
      <point x="696" y="586" type="line"/>
      <point x="616" y="586" type="line"/>
      <point x="616" y="693" type="line"/>
      <point x="548" y="693" type="line"/>
      <point x="548" y="586" type="line"/>
      <point x="172" y="586" type="line"/>
      <point x="172" y="693" type="line"/>
      <point x="104" y="693" type="line"/>
      <point x="104" y="586" type="line"/>
      <point x="24" y="586" type="line"/>
      <point x="24" y="532" type="line"/>
      <point x="104" y="532" type="line"/>
    </contour>
    <contour>
      <point x="172" y="392" type="line"/>
      <point x="172" y="532" type="line"/>
      <point x="548" y="532" type="line"/>
      <point x="548" y="392" type="line"/>
    </contour>
  </outline>
</glyph>
<glyph name="Iogonek" format="2">
  <advance width="248"/>
  <unicode hex="012E"/>
  <outline>
    <contour>
      <point x="113" y="-186" type="curve" smooth="yes"/>
      <point x="133" y="-186"/>
      <point x="157" y="-181"/>
      <point x="167" y="-177" type="curve"/>
      <point x="162" y="-129" type="line"/>
      <point x="151" y="-133"/>
      <point x="136" y="-135"/>
      <point x="124" y="-135" type="curve" smooth="yes"/>
      <point x="100" y="-135"/>
      <point x="82" y="-125"/>
      <point x="82" y="-101" type="curve" smooth="yes"/>
      <point x="82" y="-63"/>
      <point x="131" y="-21"/>
      <point x="158" y="0" type="curve"/>
      <point x="158" y="693" type="line"/>
      <point x="90" y="693" type="line"/>
      <point x="90" y="0" type="line"/>
      <point x="90" y="0" type="line"/>
      <point x="59" y="-22"/>
      <point x="15" y="-64"/>
      <point x="15" y="-116" type="curve" smooth="yes"/>
      <point x="15" y="-157"/>
      <point x="42" y="-186"/>
    </contour>
  </outline>
</glyph>
<glyph name="iogonek" format="2">
  <advance width="237"/>
  <unicode hex="012F"/>
  <outline>
    <contour>
      <point x="109" y="-186" type="curve" smooth="yes"/>
      <point x="129" y="-186"/>
      <point x="153" y="-181"/>
      <point x="163" y="-177" type="curve"/>
      <point x="158" y="-129" type="line"/>
      <point x="147" y="-133"/>
      <point x="132" y="-135"/>
      <point x="120" y="-135" type="curve" smooth="yes"/>
      <point x="96" y="-135"/>
      <point x="78" y="-125"/>
      <point x="78" y="-101" type="curve" smooth="yes"/>
      <point x="78" y="-63"/>
      <point x="117" y="-28"/>
      <point x="151" y="0" type="curve"/>
      <point x="151" y="517" type="line"/>
      <point x="86" y="517" type="line"/>
      <point x="86" y="0" type="line"/>
      <point x="86" y="0" type="line"/>
      <point x="55" y="-22"/>
      <point x="11" y="-64"/>
      <point x="11" y="-116" type="curve" smooth="yes"/>
      <point x="11" y="-157"/>
      <point x="38" y="-186"/>
    </contour>
    <contour>
      <point x="118" y="623" type="curve" smooth="yes"/>
      <point x="145" y="623"/>
      <point x="166" y="643"/>
      <point x="166" y="673" type="curve" smooth="yes"/>
      <point x="166" y="703"/>
      <point x="145" y="723"/>
      <point x="118" y="723" type="curve" smooth="yes"/>
      <point x="91" y="723"/>
      <point x="70" y="703"/>
      <point x="70" y="673" type="curve" smooth="yes"/>
      <point x="70" y="643"/>
      <point x="91" y="623"/>
    </contour>
  </outline>
</glyph>
<glyph name="uni0163" format="2">
  <advance width="387"/>
  <unicode hex="0163"/>
  <outline>
    <contour>
      <point x="206" y="-187" type="curve" smooth="yes"/>
      <point x="282.875" y="-187"/>
      <point x="304" y="-148.125"/>
      <point x="304" y="-112" type="curve" smooth="yes"/>
      <point x="304" y="-73.333"/>
      <point x="280.333" y="-52"/>
      <point x="243" y="-36" type="curve"/>
      <point x="245.667" y="-28.667"/>
      <point x="249.333" y="-20.333"/>
      <point x="254" y="-11" type="curve"/>
      <point x="306" y="-9.667"/>
      <point x="356.333" y="9"/>
      <point x="375" y="21" type="curve"/>
      <point x="359" y="75" type="line"/>
      <point x="340.333" y="64.333"/>
      <point x="308.667" y="48"/>
      <point x="254" y="48" type="curve" smooth="yes"/>
      <point x="186.852" y="48"/>
      <point x="147" y="70.65"/>
      <point x="147" y="187" type="curve" smooth="yes"/>
      <point x="147" y="462" type="line"/>
      <point x="353" y="462" type="line"/>
      <point x="353" y="517" type="line"/>
      <point x="147" y="517" type="line"/>
      <point x="147" y="681" type="line"/>
      <point x="82" y="669" type="line"/>
      <point x="82" y="193" type="line" smooth="yes"/>
      <point x="82" y="23.838"/>
      <point x="151.052" y="-0.311"/>
      <point x="210" y="-8" type="curve"/>
      <point x="206.318" y="-15.364"/>
      <point x="194.523" y="-33.257"/>
      <point x="185" y="-65" type="curve"/>
      <point x="225" y="-81"/>
      <point x="243" y="-89.333"/>
      <point x="243" y="-112" type="curve" smooth="yes"/>
      <point x="243" y="-131.333"/>
      <point x="229.333" y="-141"/>
      <point x="202" y="-141" type="curve" smooth="yes"/>
      <point x="175.333" y="-141"/>
      <point x="157.667" y="-138.667"/>
      <point x="143" y="-132" type="curve"/>
      <point x="135" y="-175" type="line"/>
      <point x="147" y="-181.667"/>
      <point x="179.333" y="-187"/>
    </contour>
  </outline>
</glyph>
<glyph name="uni0180" format="2">
  <advance width="583"/>
  <unicode hex="0180"/>
  <outline>
    <contour>
      <point x="274" y="-12" type="curve" smooth="yes"/>
      <point x="425" y="-12"/>
      <point x="528" y="90"/>
      <point x="528" y="258" type="curve" smooth="yes"/>
      <point x="528" y="416"/>
      <point x="443" y="528"/>
      <point x="294" y="528" type="curve" smooth="yes"/>
      <point x="227" y="528"/>
      <point x="174" y="503"/>
      <point x="151" y="486" type="curve"/>
      <point x="151" y="628" type="line"/>
      <point x="345" y="628" type="line"/>
      <point x="345" y="680" type="line"/>
      <point x="151" y="680" type="line"/>
      <point x="151" y="776" type="line"/>
      <point x="86" y="764" type="line"/>
      <point x="86" y="680" type="line"/>
      <point x="6" y="680" type="line"/>
      <point x="6" y="628" type="line"/>
      <point x="86" y="628" type="line"/>
      <point x="86" y="16" type="line"/>
      <point x="124" y="3"/>
      <point x="183" y="-12"/>
    </contour>
    <contour>
      <point x="273" y="47" type="curve" smooth="yes"/>
      <point x="210" y="47"/>
      <point x="171" y="55"/>
      <point x="151" y="61" type="curve"/>
      <point x="151" y="423" type="line"/>
      <point x="174" y="442"/>
      <point x="226" y="469"/>
      <point x="288" y="469" type="curve" smooth="yes"/>
      <point x="415" y="469"/>
      <point x="459" y="373"/>
      <point x="459" y="258" type="curve" smooth="yes"/>
      <point x="459" y="123"/>
      <point x="384" y="47"/>
    </contour>
  </outline>
</glyph>
<glyph name="uni0182" format="2">
  <advance width="612"/>
  <unicode hex="0182"/>
  <outline>
    <contour>
      <point x="265" y="-6" type="curve"/>
      <point x="460" y="-6"/>
      <point x="564" y="66"/>
      <point x="564" y="210" type="curve" smooth="yes"/>
      <point x="564" y="363"/>
      <point x="450" y="424"/>
      <point x="253" y="424" type="curve"/>
      <point x="158" y="424" type="line"/>
      <point x="158" y="634" type="line"/>
      <point x="502" y="634" type="line"/>
      <point x="502" y="693" type="line"/>
      <point x="90" y="693" type="line"/>
      <point x="90" y="13" type="line"/>
      <point x="138" y="0"/>
      <point x="209" y="-6"/>
    </contour>
    <contour>
      <point x="268" y="53" type="curve" smooth="yes"/>
      <point x="218" y="53"/>
      <point x="183" y="57"/>
      <point x="158" y="60" type="curve"/>
      <point x="158" y="366" type="line"/>
      <point x="244" y="366" type="line"/>
      <point x="396" y="366"/>
      <point x="493" y="336"/>
      <point x="493" y="209" type="curve" smooth="yes"/>
      <point x="493" y="87"/>
      <point x="388" y="53"/>
    </contour>
  </outline>
</glyph>
<glyph name="uni018E" format="2">
  <advance width="555"/>
  <unicode hex="018E"/>
  <anchor x="278" y="0" name="bottom"/>
  <anchor x="278" y="693" name="top"/>
  <outline>
    <contour>
      <point x="39" y="0" type="line"/>
      <point x="465" y="0" type="line"/>
      <point x="465" y="693" type="line"/>
      <point x="65" y="693" type="line"/>
      <point x="65" y="634" type="line"/>
      <point x="397" y="634" type="line"/>
      <point x="397" y="393" type="line"/>
      <point x="101" y="393" type="line"/>
      <point x="101" y="335" type="line"/>
      <point x="397" y="335" type="line"/>
      <point x="397" y="59" type="line"/>
      <point x="39" y="59" type="line"/>
    </contour>
  </outline>
</glyph>
<glyph name="florin" format="2">
  <advance width="376"/>
  <unicode hex="0192"/>
  <outline>
    <contour>
      <point x="-11" y="-187" type="curve" smooth="yes"/>
      <point x="106" y="-187"/>
      <point x="151" y="-125"/>
      <point x="151" y="5" type="curve" smooth="yes"/>
      <point x="151" y="462" type="line"/>
      <point x="359" y="462" type="line"/>
      <point x="359" y="517" type="line"/>
      <point x="151" y="517" type="line"/>
      <point x="151" y="571" type="line" smooth="yes"/>
      <point x="151" y="673"/>
      <point x="187" y="718"/>
      <point x="279" y="718" type="curve" smooth="yes"/>
      <point x="323" y="718"/>
      <point x="352" y="709"/>
      <point x="366" y="702" type="curve"/>
      <point x="379" y="758" type="line"/>
      <point x="368" y="765"/>
      <point x="331" y="776"/>
      <point x="276" y="776" type="curve" smooth="yes"/>
      <point x="147" y="776"/>
      <point x="86" y="707"/>
      <point x="86" y="573" type="curve" smooth="yes"/>
      <point x="86" y="2" type="line"/>
      <point x="86" y="-86"/>
      <point x="67" y="-130"/>
      <point x="-12" y="-130" type="curve" smooth="yes"/>
      <point x="-27" y="-130"/>
      <point x="-45" y="-127"/>
      <point x="-54" y="-124" type="curve"/>
      <point x="-63" y="-177" type="line"/>
      <point x="-52" y="-182"/>
      <point x="-25" y="-187"/>
    </contour>
  </outline>
</glyph>
<glyph name="uni01AC" format="2">
  <advance width="563"/>
  <unicode hex="01AC"/>
  <anchor x="282" y="0" name="bottom"/>
  <anchor x="282" y="693" name="top"/>
  <outline>
    <contour>
      <point x="255" y="0" type="line"/>
      <point x="323" y="0" type="line"/>
      <point x="323" y="634" type="line"/>
      <point x="545" y="634" type="line"/>
      <point x="545" y="693" type="line"/>
      <point x="208" y="693" type="line" smooth="yes"/>
      <point x="102" y="693"/>
      <point x="20" y="660"/>
      <point x="20" y="543" type="curve" smooth="yes"/>
      <point x="20" y="531"/>
      <point x="23" y="506"/>
      <point x="26" y="495" type="curve"/>
      <point x="82" y="503" type="line"/>
      <point x="80" y="515"/>
      <point x="79" y="528"/>
      <point x="79" y="535" type="curve" smooth="yes"/>
      <point x="79" y="597"/>
      <point x="112" y="634"/>
      <point x="177" y="634" type="curve" smooth="yes"/>
      <point x="255" y="634" type="line"/>
    </contour>
  </outline>
</glyph>
<glyph name="uni01B5" format="2">
  <advance width="560"/>
  <unicode hex="01B5"/>
  <outline>
    <contour>
      <point x="38" y="0" type="line"/>
      <point x="520" y="0" type="line"/>
      <point x="520" y="59" type="line"/>
      <point x="112" y="59" type="line"/>
      <point x="157" y="142"/>
      <point x="221" y="242"/>
      <point x="287" y="337" type="curve"/>
      <point x="486" y="337" type="line"/>
      <point x="486" y="392" type="line"/>
      <point x="326" y="392" type="line"/>
      <point x="396" y="490"/>
      <point x="464" y="578"/>
      <point x="510" y="631" type="curve"/>
      <point x="510" y="693" type="line"/>
      <point x="57" y="693" type="line"/>
      <point x="57" y="634" type="line"/>
      <point x="436" y="634" type="line"/>
      <point x="386" y="578"/>
      <point x="318" y="489"/>
      <point x="250" y="392" type="curve"/>
      <point x="85" y="392" type="line"/>
      <point x="85" y="337" type="line"/>
      <point x="212" y="337" type="line"/>
      <point x="144" y="236"/>
      <point x="79" y="131"/>
      <point x="38" y="51" type="curve"/>
    </contour>
  </outline>
</glyph>
<glyph name="uni01BD" format="2">
  <advance width="490"/>
  <unicode hex="01BD"/>
  <anchor x="245" y="0" name="bottom"/>
  <anchor x="245" y="517" name="top"/>
  <outline>
    <contour>
      <point x="223" y="-12" type="curve" smooth="yes"/>
      <point x="378" y="-12"/>
      <point x="445" y="56"/>
      <point x="445" y="146" type="curve" smooth="yes"/>
      <point x="445" y="273"/>
      <point x="346" y="316"/>
      <point x="183" y="316" type="curve" smooth="yes"/>
      <point x="164" y="316" type="line"/>
      <point x="169" y="358"/>
      <point x="173" y="415"/>
      <point x="177" y="462" type="curve"/>
      <point x="422" y="462" type="line"/>
      <point x="422" y="517" type="line"/>
      <point x="38" y="517" type="line"/>
      <point x="38" y="462" type="line"/>
      <point x="119" y="462" type="line"/>
      <point x="115" y="395"/>
      <point x="110" y="338"/>
      <point x="101" y="262" type="curve"/>
      <point x="147" y="262" type="line" smooth="yes"/>
      <point x="317" y="262"/>
      <point x="377" y="234"/>
      <point x="377" y="147" type="curve" smooth="yes"/>
      <point x="377" y="81"/>
      <point x="321" y="46"/>
      <point x="222" y="46" type="curve" smooth="yes"/>
      <point x="134" y="46"/>
      <point x="89" y="66"/>
      <point x="68" y="77" type="curve"/>
      <point x="51" y="19" type="line"/>
      <point x="79" y="4"/>
      <point x="154" y="-12"/>
    </contour>
  </outline>
</glyph>
<glyph name="Aringacute" format="2">
  <advance width="641"/>
  <unicode hex="01FA"/>
  <outline>
    <contour>
      <point x="10" y="0" type="curve"/>
      <point x="81" y="0" type="line"/>
      <point x="105" y="68"/>
      <point x="128" y="130"/>
      <point x="150" y="190" type="curve"/>
      <point x="487" y="190" type="line"/>
      <point x="508" y="130"/>
      <point x="531" y="68"/>
      <point x="556" y="0" type="curve"/>
      <point x="631" y="0" type="line"/>
      <point x="529" y="271"/>
      <point x="457" y="463"/>
      <point x="367" y="655" type="curve"/>
      <point x="391" y="670"/>
      <point x="408" y="697"/>
      <point x="408" y="731" type="curve" smooth="yes"/>
      <point x="408" y="784"/>
      <point x="367" y="819"/>
      <point x="320" y="819" type="curve" smooth="yes"/>
      <point x="269" y="819"/>
      <point x="231" y="784"/>
      <point x="231" y="731" type="curve" smooth="yes"/>
      <point x="231" y="696"/>
      <point x="247" y="669"/>
      <point x="272" y="654" type="curve"/>
      <point x="183" y="463"/>
      <point x="110" y="271"/>
    </contour>
    <contour>
      <point x="171" y="248" type="line"/>
      <point x="221" y="384"/>
      <point x="267" y="501"/>
      <point x="318" y="615" type="curve"/>
      <point x="369" y="501"/>
      <point x="415" y="384"/>
      <point x="466" y="248" type="curve"/>
    </contour>
    <contour>
      <point x="320" y="677" type="curve" smooth="yes"/>
      <point x="290" y="677"/>
      <point x="268" y="698"/>
      <point x="268" y="731" type="curve" smooth="yes"/>
      <point x="268" y="763"/>
      <point x="290" y="783"/>
      <point x="320" y="783" type="curve" smooth="yes"/>
      <point x="349" y="783"/>
      <point x="371" y="763"/>
      <point x="371" y="731" type="curve" smooth="yes"/>
      <point x="371" y="698"/>
      <point x="349" y="677"/>
    </contour>
    <contour>
      <point x="254" y="841" type="line"/>
      <point x="408" y="898" type="line"/>
      <point x="384" y="956" type="line"/>
      <point x="238" y="882" type="line"/>
    </contour>
  </outline>
</glyph>
<glyph name="uni021C" format="2">
  <advance width="524"/>
  <unicode hex="021C"/>
  <outline>
    <contour>
      <point x="95" y="-185" type="curve" smooth="yes"/>
      <point x="278" y="-185"/>
      <point x="469" y="-116"/>
      <point x="469" y="90" type="curve" smooth="yes"/>
      <point x="469" y="196"/>
      <point x="401" y="279"/>
      <point x="289" y="305" type="curve"/>
      <point x="385" y="334"/>
      <point x="440" y="417"/>
      <point x="440" y="500" type="curve"/>
      <point x="440" y="640"/>
      <point x="344" y="708"/>
      <point x="208" y="708" type="curve" smooth="yes"/>
      <point x="126" y="708"/>
      <point x="54" y="682"/>
      <point x="19" y="659" type="curve"/>
      <point x="43" y="602" type="line"/>
      <point x="81" y="629"/>
      <point x="143" y="650"/>
      <point x="209" y="650" type="curve" smooth="yes"/>
      <point x="313" y="650"/>
      <point x="368" y="592"/>
      <point x="368" y="498" type="curve" smooth="yes"/>
      <point x="368" y="377"/>
      <point x="259" y="327"/>
      <point x="156" y="327" type="curve" smooth="yes"/>
      <point x="129" y="327" type="line"/>
      <point x="129" y="269" type="line"/>
      <point x="165" y="269" type="line" smooth="yes"/>
      <point x="247" y="269"/>
      <point x="397" y="236"/>
      <point x="397" y="87" type="curve" smooth="yes"/>
      <point x="397" y="-81"/>
      <point x="230" y="-126"/>
      <point x="88" y="-126" type="curve" smooth="yes"/>
      <point x="61" y="-126"/>
      <point x="41" y="-125"/>
      <point x="34" y="-124" type="curve"/>
      <point x="30" y="-182" type="line"/>
      <point x="41" y="-184"/>
      <point x="67" y="-185"/>
    </contour>
  </outline>
</glyph>
<glyph name="uni0229" format="2">
  <advance width="548"/>
  <unicode hex="0229"/>
  <outline>
    <contour>
      <point x="266" y="-187" type="curve" smooth="yes"/>
      <point x="346" y="-187"/>
      <point x="364" y="-145"/>
      <point x="364" y="-112" type="curve" smooth="yes"/>
      <point x="364" y="-73"/>
      <point x="340" y="-52"/>
      <point x="303" y="-36" type="curve"/>
      <point x="305" y="-29"/>
      <point x="310" y="-20"/>
      <point x="314" y="-11" type="curve"/>
      <point x="381" y="-10"/>
      <point x="434" y="9"/>
      <point x="452" y="19" type="curve"/>
      <point x="440" y="75" type="line"/>
      <point x="422" y="66"/>
      <point x="381" y="48"/>
      <point x="311" y="48" type="curve" smooth="yes"/>
      <point x="184" y="48"/>
      <point x="128" y="119"/>
      <point x="124" y="245" type="curve"/>
      <point x="487" y="245" type="line"/>
      <point x="488" y="254"/>
      <point x="489" y="266"/>
      <point x="489" y="276" type="curve" smooth="yes"/>
      <point x="489" y="448"/>
      <point x="408" y="529"/>
      <point x="281" y="529" type="curve" smooth="yes"/>
      <point x="167" y="529"/>
      <point x="55" y="440"/>
      <point x="55" y="259" type="curve" smooth="yes"/>
      <point x="55" y="114"/>
      <point x="117" y="6"/>
      <point x="270" y="-9" type="curve"/>
      <point x="260" y="-27"/>
      <point x="250" y="-49"/>
      <point x="245" y="-65" type="curve"/>
      <point x="285" y="-81"/>
      <point x="303" y="-90"/>
      <point x="303" y="-112" type="curve" smooth="yes"/>
      <point x="303" y="-131"/>
      <point x="289" y="-141"/>
      <point x="262" y="-141" type="curve" smooth="yes"/>
      <point x="235" y="-141"/>
      <point x="218" y="-138"/>
      <point x="203" y="-132" type="curve"/>
      <point x="195" y="-175" type="line"/>
      <point x="207" y="-181"/>
      <point x="239" y="-187"/>
    </contour>
    <contour>
      <point x="126" y="300" type="line"/>
      <point x="131" y="390"/>
      <point x="190" y="471"/>
      <point x="282" y="471" type="curve" smooth="yes"/>
      <point x="369" y="471"/>
      <point x="420" y="408"/>
      <point x="422" y="300" type="curve"/>
    </contour>
  </outline>
</glyph>
<glyph name="uni023F" format="2">
  <advance width="428"/>
  <unicode hex="023F"/>
  <outline>
    <contour>
      <point x="318" y="-185" type="curve"/>
      <point x="337" y="-185"/>
      <point x="360" y="-182"/>
      <point x="369" y="-179" type="curve"/>
      <point x="361" y="-127" type="line"/>
      <point x="349" y="-130"/>
      <point x="341" y="-130"/>
      <point x="328" y="-130" type="curve" smooth="yes"/>
      <point x="263" y="-130"/>
      <point x="235" y="-107"/>
      <point x="200" y="-69" type="curve" smooth="yes"/>
      <point x="170" y="-35"/>
      <point x="148" y="-9"/>
      <point x="138" y="1" type="curve"/>
      <point x="155" y="-3"/>
      <point x="177" y="-5"/>
      <point x="192" y="-5" type="curve"/>
      <point x="313" y="-5"/>
      <point x="388" y="37"/>
      <point x="388" y="130" type="curve" smooth="yes"/>
      <point x="388" y="228"/>
      <point x="314" y="255"/>
      <point x="235" y="287" type="curve" smooth="yes"/>
      <point x="157" y="318"/>
      <point x="114" y="336"/>
      <point x="114" y="393" type="curve" smooth="yes"/>
      <point x="114" y="448"/>
      <point x="165" y="470"/>
      <point x="223" y="470" type="curve" smooth="yes"/>
      <point x="296" y="470"/>
      <point x="331" y="453"/>
      <point x="347" y="445" type="curve"/>
      <point x="362" y="503" type="line"/>
      <point x="344" y="512"/>
      <point x="296" y="527"/>
      <point x="226" y="527" type="curve" smooth="yes"/>
      <point x="116" y="527"/>
      <point x="48" y="471"/>
      <point x="48" y="387" type="curve" smooth="yes"/>
      <point x="48" y="300"/>
      <point x="117" y="269"/>
      <point x="193" y="238" type="curve" smooth="yes"/>
      <point x="289" y="199"/>
      <point x="321" y="184"/>
      <point x="321" y="127" type="curve" smooth="yes"/>
      <point x="321" y="68"/>
      <point x="266" y="47"/>
      <point x="191" y="47" type="curve" smooth="yes"/>
      <point x="135" y="47"/>
      <point x="89" y="58"/>
      <point x="55" y="77" type="curve"/>
      <point x="33" y="24" type="line"/>
      <point x="46" y="18"/>
      <point x="56" y="10"/>
      <point x="65" y="1" type="curve" smooth="yes"/>
      <point x="88" y="-21"/>
      <point x="106" y="-53"/>
      <point x="150" y="-100" type="curve"/>
      <point x="211" y="-164"/>
      <point x="243" y="-185"/>
    </contour>
  </outline>
</glyph>
<glyph name="uni0247" format="2">
  <advance width="548"/>
  <unicode hex="0247"/>
  <anchor x="274" y="0" name="bottom"/>
  <anchor x="274" y="517" name="top"/>
  <outline>
    <contour>
      <point x="184" y="-84" type="line"/>
      <point x="211" y="2" type="line"/>
      <point x="239" y="-6"/>
      <point x="272" y="-11"/>
      <point x="309" y="-11" type="curve" smooth="yes"/>
      <point x="378" y="-11"/>
      <point x="434" y="9"/>
      <point x="452" y="19" type="curve"/>
      <point x="440" y="74" type="line"/>
      <point x="422" y="65"/>
      <point x="381" y="47"/>
      <point x="311" y="47" type="curve" smooth="yes"/>
      <point x="280" y="47"/>
      <point x="253" y="51"/>
      <point x="230" y="59" type="curve"/>
      <point x="289" y="245" type="line"/>
      <point x="487" y="245" type="line"/>
      <point x="488" y="254"/>
      <point x="489" y="266"/>
      <point x="489" y="276" type="curve" smooth="yes"/>
      <point x="489" y="400"/>
      <point x="446" y="477"/>
      <point x="374" y="510" type="curve"/>
      <point x="402" y="597" type="line"/>
      <point x="353" y="613" type="line"/>
      <point x="325" y="525" type="line"/>
      <point x="311" y="528"/>
      <point x="296" y="529"/>
      <point x="281" y="529" type="curve" smooth="yes"/>
      <point x="167" y="529"/>
      <point x="55" y="440"/>
      <point x="55" y="259" type="curve" smooth="yes"/>
      <point x="55" y="153"/>
      <point x="88" y="68"/>
      <point x="164" y="23" type="curve"/>
      <point x="135" y="-68" type="line"/>
    </contour>
    <contour>
      <point x="184" y="86" type="line"/>
      <point x="144" y="119"/>
      <point x="124" y="173"/>
      <point x="122" y="245" type="curve"/>
      <point x="235" y="245" type="line"/>
    </contour>
    <contour>
      <point x="124" y="297" type="line"/>
      <point x="129" y="392"/>
      <point x="190" y="473"/>
      <point x="282" y="473" type="curve" smooth="yes"/>
      <point x="291" y="473"/>
      <point x="299" y="472"/>
      <point x="307" y="471" type="curve"/>
      <point x="251" y="297" type="line"/>
    </contour>
    <contour>
      <point x="306" y="297" type="line"/>
      <point x="356" y="453" type="line"/>
      <point x="399" y="427"/>
      <point x="424" y="373"/>
      <point x="424" y="297" type="curve"/>
    </contour>
  </outline>
</glyph>
<glyph name="uni024B" format="2">
  <advance width="583"/>
  <unicode hex="024B"/>
  <anchor x="292" y="0" name="bottom"/>
  <anchor x="292" y="517" name="top"/>
  <outline>
    <contour>
      <point x="557" y="-186" type="curve" smooth="yes"/>
      <point x="579" y="-186"/>
      <point x="600" y="-182"/>
      <point x="610" y="-178" type="curve"/>
      <point x="601" y="-125" type="line"/>
      <point x="594" y="-128"/>
      <point x="581" y="-130"/>
      <point x="565" y="-130" type="curve" smooth="yes"/>
      <point x="514" y="-130"/>
      <point x="497" y="-101"/>
      <point x="497" y="-37" type="curve"/>
      <point x="497" y="499" type="line"/>
      <point x="459" y="512"/>
      <point x="400" y="527"/>
      <point x="309" y="527" type="curve" smooth="yes"/>
      <point x="158" y="527"/>
      <point x="55" y="425"/>
      <point x="55" y="257" type="curve" smooth="yes"/>
      <point x="55" y="99"/>
      <point x="140" y="-12"/>
      <point x="289" y="-12" type="curve" smooth="yes"/>
      <point x="356" y="-12"/>
      <point x="409" y="13"/>
      <point x="432" y="30" type="curve"/>
      <point x="432" y="-26" type="line" smooth="yes"/>
      <point x="432" y="-117"/>
      <point x="446" y="-186"/>
    </contour>
    <contour>
      <point x="295" y="47" type="curve" smooth="yes"/>
      <point x="168" y="47"/>
      <point x="124" y="142"/>
      <point x="124" y="257" type="curve" smooth="yes"/>
      <point x="124" y="392"/>
      <point x="199" y="468"/>
      <point x="310" y="468" type="curve" smooth="yes"/>
      <point x="373" y="468"/>
      <point x="412" y="460"/>
      <point x="432" y="454" type="curve"/>
      <point x="432" y="93" type="line"/>
      <point x="409" y="74"/>
      <point x="357" y="47"/>
    </contour>
  </outline>
</glyph>
<glyph name="uni024C" format="2">
  <advance width="632"/>
  <unicode hex="024C"/>
  <anchor x="316" y="0" name="bottom"/>
  <anchor x="316" y="693" name="top"/>
  <outline>
    <contour>
      <point x="104" y="0" type="line"/>
      <point x="172" y="0" type="line"/>
      <point x="172" y="283" type="line"/>
      <point x="284" y="283" type="line" smooth="yes"/>
      <point x="305" y="283"/>
      <point x="327" y="283"/>
      <point x="347" y="285" type="curve"/>
      <point x="395" y="222"/>
      <point x="480" y="106"/>
      <point x="535" y="0" type="curve"/>
      <point x="608" y="0" type="line"/>
      <point x="559" y="106"/>
      <point x="461" y="244"/>
      <point x="417" y="297" type="curve"/>
      <point x="506" y="323"/>
      <point x="566" y="382"/>
      <point x="566" y="485" type="curve" smooth="yes"/>
      <point x="566" y="625"/>
      <point x="467" y="699"/>
      <point x="278" y="699" type="curve" smooth="yes"/>
      <point x="223" y="699"/>
      <point x="152" y="693"/>
      <point x="104" y="680" type="curve"/>
      <point x="104" y="338" type="line"/>
      <point x="24" y="338" type="line"/>
      <point x="24" y="283" type="line"/>
      <point x="104" y="283" type="line"/>
    </contour>
    <contour>
      <point x="172" y="338" type="line"/>
      <point x="172" y="633" type="line"/>
      <point x="197" y="636"/>
      <point x="236" y="640"/>
      <point x="286" y="640" type="curve" smooth="yes"/>
      <point x="392" y="640"/>
      <point x="495" y="610"/>
      <point x="495" y="486" type="curve" smooth="yes"/>
      <point x="495" y="354"/>
      <point x="392" y="338"/>
      <point x="266" y="338" type="curve" smooth="yes"/>
    </contour>
  </outline>
</glyph>
<glyph name="uni024E" format="2">
  <advance width="589"/>
  <unicode hex="024E"/>
  <anchor x="295" y="0" name="bottom"/>
  <anchor x="295" y="693" name="top"/>
  <outline>
    <contour>
      <point x="261" y="0" type="line"/>
      <point x="329" y="0" type="line"/>
      <point x="329" y="287" type="line"/>
      <point x="370" y="350"/>
      <point x="409" y="412"/>
      <point x="445" y="474" type="curve"/>
      <point x="568" y="474" type="line"/>
      <point x="568" y="528" type="line"/>
      <point x="476" y="528" type="line"/>
      <point x="507" y="583"/>
      <point x="538" y="638"/>
      <point x="569" y="693" type="curve"/>
      <point x="495" y="693" type="line"/>
      <point x="468" y="639"/>
      <point x="439" y="583"/>
      <point x="408" y="528" type="curve"/>
      <point x="184" y="528" type="line"/>
      <point x="153" y="583"/>
      <point x="124" y="639"/>
      <point x="99" y="693" type="curve"/>
      <point x="20" y="693" type="line"/>
      <point x="48" y="639"/>
      <point x="79" y="584"/>
      <point x="111" y="528" type="curve"/>
      <point x="20" y="528" type="line"/>
      <point x="20" y="474" type="line"/>
      <point x="143" y="474" type="line"/>
      <point x="180" y="412"/>
      <point x="219" y="349"/>
      <point x="261" y="285" type="curve"/>
    </contour>
    <contour>
      <point x="297" y="342" type="curve"/>
      <point x="269" y="384"/>
      <point x="241" y="428"/>
      <point x="214" y="474" type="curve"/>
      <point x="377" y="474" type="line"/>
      <point x="351" y="428"/>
      <point x="324" y="384"/>
    </contour>
  </outline>
</glyph>
<glyph name="Theta" format="2">
  <advance width="774"/>
  <unicode hex="0398"/>
  <outline>
    <contour>
      <point x="387" y="-15" type="curve" smooth="yes"/>
      <point x="562" y="-15"/>
      <point x="712" y="109"/>
      <point x="712" y="347" type="curve" smooth="yes"/>
      <point x="712" y="585"/>
      <point x="562" y="708"/>
      <point x="387" y="708" type="curve" smooth="yes"/>
      <point x="212" y="708"/>
      <point x="62" y="585"/>
      <point x="62" y="347" type="curve" smooth="yes"/>
      <point x="62" y="109"/>
      <point x="212" y="-15"/>
    </contour>
    <contour>
      <point x="387" y="46" type="curve" smooth="yes"/>
      <point x="233" y="46"/>
      <point x="134" y="161"/>
      <point x="134" y="347" type="curve" smooth="yes"/>
      <point x="134" y="533"/>
      <point x="233" y="647"/>
      <point x="387" y="647" type="curve" smooth="yes"/>
      <point x="541" y="647"/>
      <point x="640" y="533"/>
      <point x="640" y="347" type="curve" smooth="yes"/>
      <point x="640" y="161"/>
      <point x="541" y="46"/>
    </contour>
    <contour>
      <point x="223" y="320" type="line"/>
      <point x="551" y="320" type="line"/>
      <point x="551" y="378" type="line"/>
      <point x="223" y="378" type="line"/>
    </contour>
  </outline>
</glyph>
<glyph name="Lambda" format="2">
  <advance width="624"/>
  <unicode hex="039B"/>
  <outline>
    <contour>
      <point x="10" y="0" type="curve"/>
      <point x="82" y="0" type="line"/>
      <point x="162" y="237"/>
      <point x="227" y="421"/>
      <point x="310" y="613" type="curve"/>
      <point x="394" y="418"/>
      <point x="457" y="237"/>
      <point x="538" y="0" type="curve"/>
      <point x="614" y="0" type="line"/>
      <point x="491" y="350"/>
      <point x="425" y="509"/>
      <point x="343" y="693" type="curve"/>
      <point x="280" y="693" type="line"/>
      <point x="198" y="509"/>
      <point x="132" y="350"/>
    </contour>
  </outline>
</glyph>
<glyph name="Sigma" format="2">
  <advance width="552"/>
  <unicode hex="03A3"/>
  <outline>
    <contour>
      <point x="38" y="0" type="line"/>
      <point x="511" y="0" type="line"/>
      <point x="511" y="59" type="line"/>
      <point x="110" y="59" type="line"/>
      <point x="181" y="165"/>
      <point x="266" y="255"/>
      <point x="356" y="364" type="curve"/>
      <point x="273" y="472"/>
      <point x="172" y="584"/>
      <point x="140" y="634" type="curve"/>
      <point x="509" y="634" type="line"/>
      <point x="509" y="693" type="line"/>
      <point x="51" y="693" type="line"/>
      <point x="51" y="645" type="line"/>
      <point x="92" y="583"/>
      <point x="191" y="473"/>
      <point x="276" y="363" type="curve"/>
      <point x="189" y="251"/>
      <point x="86" y="138"/>
      <point x="38" y="58" type="curve"/>
    </contour>
  </outline>
</glyph>
<glyph name="pi" format="2">
  <advance width="571"/>
  <unicode hex="03C0"/>
  <outline>
    <contour>
      <point x="86" y="0" type="line"/>
      <point x="151" y="0" type="line"/>
      <point x="151" y="462" type="line"/>
      <point x="420" y="462" type="line"/>
      <point x="420" y="0" type="line"/>
      <point x="485" y="0" type="line"/>
      <point x="485" y="517" type="line"/>
      <point x="86" y="517" type="line"/>
    </contour>
  </outline>
</glyph>
<glyph name="sigma1" format="2">
  <advance width="449"/>
  <unicode hex="03C2"/>
  <outline>
    <contour>
      <point x="380" y="-188" type="line"/>
      <point x="400" y="-163"/>
      <point x="430" y="-107"/>
      <point x="430" y="-56" type="curve" smooth="yes"/>
      <point x="430" y="14"/>
      <point x="396" y="42"/>
      <point x="309" y="63" type="curve" smooth="yes"/>
      <point x="177" y="95"/>
      <point x="124" y="128"/>
      <point x="124" y="257" type="curve" smooth="yes"/>
      <point x="124" y="392"/>
      <point x="188" y="470"/>
      <point x="301" y="470" type="curve" smooth="yes"/>
      <point x="356" y="470"/>
      <point x="387" y="461"/>
      <point x="414" y="448" type="curve"/>
      <point x="431" y="504" type="line"/>
      <point x="405" y="519"/>
      <point x="350" y="529"/>
      <point x="295" y="529" type="curve" smooth="yes"/>
      <point x="149" y="529"/>
      <point x="55" y="422"/>
      <point x="55" y="255" type="curve"/>
      <point x="55" y="121"/>
      <point x="104" y="48"/>
      <point x="282" y="8" type="curve"/>
      <point x="342" y="-6"/>
      <point x="366" y="-24"/>
      <point x="366" y="-69" type="curve" smooth="yes"/>
      <point x="366" y="-112"/>
      <point x="335" y="-154"/>
      <point x="326" y="-166" type="curve"/>
    </contour>
  </outline>
</glyph>
<glyph name="upsilon" format="2">
  <advance width="568"/>
  <unicode hex="03C5"/>
  <anchor x="284" y="517" name="top"/>
  <outline>
    <contour>
      <point x="284" y="-11" type="curve"/>
      <point x="439" y="-11"/>
      <point x="488" y="87"/>
      <point x="488" y="220" type="curve" smooth="yes"/>
      <point x="488" y="517" type="line"/>
      <point x="423" y="517" type="line"/>
      <point x="423" y="226" type="line" smooth="yes"/>
      <point x="423" y="96"/>
      <point x="372" y="49"/>
      <point x="284" y="49" type="curve"/>
      <point x="196" y="49"/>
      <point x="145" y="96"/>
      <point x="145" y="226" type="curve" smooth="yes"/>
      <point x="145" y="517" type="line"/>
      <point x="80" y="517" type="line"/>
      <point x="80" y="220" type="line" smooth="yes"/>
      <point x="80" y="87"/>
      <point x="129" y="-11"/>
    </contour>
  </outline>
</glyph>
<glyph name="afii10060" format="2">
  <advance width="729"/>
  <unicode hex="040B"/>
  <outline>
    <contour>
      <point x="227" y="0" type="line"/>
      <point x="295" y="0" type="line"/>
      <point x="295" y="354" type="line"/>
      <point x="310" y="359"/>
      <point x="369" y="374"/>
      <point x="433" y="374" type="curve"/>
      <point x="549" y="374"/>
      <point x="593" y="323"/>
      <point x="593" y="211" type="curve" smooth="yes"/>
      <point x="593" y="0" type="line"/>
      <point x="661" y="0" type="line"/>
      <point x="661" y="212" type="line" smooth="yes"/>
      <point x="661" y="348"/>
      <point x="606" y="434"/>
      <point x="439" y="434" type="curve" smooth="yes"/>
      <point x="371" y="434"/>
      <point x="315" y="420"/>
      <point x="295" y="413" type="curve"/>
      <point x="295" y="634" type="line"/>
      <point x="541" y="634" type="line"/>
      <point x="541" y="693" type="line"/>
      <point x="18" y="693" type="line"/>
      <point x="18" y="634" type="line"/>
      <point x="227" y="634" type="line"/>
    </contour>
  </outline>
</glyph>
<glyph name="afii10024" format="2">
  <advance width="847"/>
  <unicode hex="0416"/>
  <anchor x="827" y="0" name="bottomright"/>
  <anchor x="424" y="693" name="top"/>
  <outline>
    <contour>
      <point x="22" y="0" type="curve"/>
      <point x="97" y="0" type="line"/>
      <point x="164" y="121"/>
      <point x="307" y="279"/>
      <point x="391" y="345" type="curve"/>
      <point x="391" y="0" type="line"/>
      <point x="455" y="0" type="line"/>
      <point x="455" y="345" type="line"/>
      <point x="539" y="279"/>
      <point x="682" y="121"/>
      <point x="749" y="0" type="curve"/>
      <point x="825" y="0" type="line"/>
      <point x="759" y="123"/>
      <point x="631" y="273"/>
      <point x="528" y="367" type="curve"/>
      <point x="598" y="446"/>
      <point x="744" y="614"/>
      <point x="808" y="693" type="curve"/>
      <point x="730" y="693" type="line"/>
      <point x="679" y="629"/>
      <point x="542" y="467"/>
      <point x="455" y="368" type="curve"/>
      <point x="455" y="693" type="line"/>
      <point x="391" y="693" type="line"/>
      <point x="391" y="368" type="line"/>
      <point x="304" y="467"/>
      <point x="167" y="629"/>
      <point x="116" y="693" type="curve"/>
      <point x="37" y="693" type="line"/>
      <point x="102" y="613"/>
      <point x="248" y="445"/>
      <point x="318" y="366" type="curve"/>
      <point x="215" y="272"/>
      <point x="88" y="123"/>
    </contour>
  </outline>
</glyph>
<glyph name="afii10025" format="2">
  <advance width="555"/>
  <unicode hex="0417"/>
  <anchor x="278" y="0" name="bottom"/>
  <anchor x="278" y="693" name="top"/>
  <outline>
    <contour>
      <point x="230" y="-15" type="curve" smooth="yes"/>
      <point x="388" y="-15"/>
      <point x="499" y="41"/>
      <point x="499" y="189" type="curve" smooth="yes"/>
      <point x="499" y="304"/>
      <point x="419" y="360"/>
      <point x="330" y="376" type="curve"/>
      <point x="421" y="396"/>
      <point x="468" y="462"/>
      <point x="468" y="533" type="curve" smooth="yes"/>
      <point x="468" y="654"/>
      <point x="374" y="708"/>
      <point x="239" y="708" type="curve"/>
      <point x="159" y="708"/>
      <point x="88" y="685"/>
      <point x="53" y="662" type="curve"/>
      <point x="77" y="605" type="line"/>
      <point x="115" y="632"/>
      <point x="175" y="649"/>
      <point x="238" y="649" type="curve" smooth="yes"/>
      <point x="343" y="649"/>
      <point x="397" y="598"/>
      <point x="397" y="531" type="curve" smooth="yes"/>
      <point x="397" y="427"/>
      <point x="294" y="397"/>
      <point x="206" y="397" type="curve"/>
      <point x="147" y="397" type="line"/>
      <point x="147" y="339" type="line"/>
      <point x="193" y="339" type="line" smooth="yes"/>
      <point x="324" y="339"/>
      <point x="427" y="311"/>
      <point x="427" y="189" type="curve" smooth="yes"/>
      <point x="427" y="83"/>
      <point x="345" y="44"/>
      <point x="231" y="44" type="curve"/>
      <point x="143" y="44"/>
      <point x="80" y="75"/>
      <point x="53" y="90" type="curve"/>
      <point x="31" y="31" type="line"/>
      <point x="57" y="16"/>
      <point x="130" y="-15"/>
    </contour>
  </outline>
</glyph>
<glyph name="afii10041" format="2">
  <advance width="609"/>
  <unicode hex="0427"/>
  <anchor x="589" y="0" name="bottomright"/>
  <anchor x="305" y="693" name="top"/>
  <outline>
    <contour>
      <point x="451" y="0" type="line"/>
      <point x="519" y="0" type="line"/>
      <point x="519" y="693" type="line"/>
      <point x="451" y="693" type="line"/>
      <point x="451" y="332" type="line"/>
      <point x="436" y="327"/>
      <point x="374" y="312"/>
      <point x="308" y="312" type="curve" smooth="yes"/>
      <point x="158" y="312"/>
      <point x="136" y="378"/>
      <point x="136" y="499" type="curve" smooth="yes"/>
      <point x="136" y="693" type="line"/>
      <point x="68" y="693" type="line"/>
      <point x="68" y="499" type="line" smooth="yes"/>
      <point x="68" y="367"/>
      <point x="80" y="252"/>
      <point x="302" y="252" type="curve" smooth="yes"/>
      <point x="372" y="252"/>
      <point x="431" y="266"/>
      <point x="451" y="273" type="curve"/>
    </contour>
  </outline>
</glyph>
<glyph name="afii10068" format="2">
  <advance width="397"/>
  <unicode hex="0433"/>
  <anchor x="377" y="0" name="bottomright"/>
  <anchor x="199" y="517" name="top"/>
  <outline>
    <contour>
      <point x="86" y="0" type="line"/>
      <point x="151" y="0" type="line"/>
      <point x="151" y="462" type="line"/>
      <point x="382" y="462" type="line"/>
      <point x="382" y="517" type="line"/>
      <point x="86" y="517" type="line"/>
    </contour>
  </outline>
</glyph>
<glyph name="uni0474" format="2">
  <advance width="736"/>
  <unicode hex="0474"/>
  <anchor x="368" y="693" name="top"/>
  <outline>
    <contour>
      <point x="281" y="0" type="curve"/>
      <point x="345" y="0" type="line"/>
      <point x="419" y="189"/>
      <point x="494" y="377"/>
      <point x="568" y="566" type="curve" smooth="yes"/>
      <point x="595" y="635"/>
      <point x="618" y="644"/>
      <point x="645" y="644" type="curve" smooth="yes"/>
      <point x="675" y="644"/>
      <point x="701" y="625"/>
      <point x="715" y="608" type="curve"/>
      <point x="747" y="653" type="line"/>
      <point x="731" y="672"/>
      <point x="697" y="703"/>
      <point x="642" y="703" type="curve" smooth="yes"/>
      <point x="591" y="703"/>
      <point x="547" y="690"/>
      <point x="510" y="592" type="curve" smooth="yes"/>
      <point x="445" y="421"/>
      <point x="380" y="249"/>
      <point x="315" y="78" type="curve"/>
      <point x="230" y="275"/>
      <point x="167" y="456"/>
      <point x="86" y="693" type="curve"/>
      <point x="10" y="693" type="line"/>
      <point x="133" y="343"/>
      <point x="199" y="184"/>
    </contour>
  </outline>
</glyph>
<glyph name="uni048E" format="2">
  <advance width="592"/>
  <unicode hex="048E"/>
  <outline>
    <contour>
      <point x="90" y="0" type="line"/>
      <point x="158" y="0" type="line"/>
      <point x="158" y="268" type="line"/>
      <point x="252" y="268" type="line" smooth="yes"/>
      <point x="287" y="268"/>
      <point x="320" y="270"/>
      <point x="350" y="274" type="curve"/>
      <point x="427" y="140" type="line"/>
      <point x="478" y="171" type="line"/>
      <point x="411" y="288" type="line"/>
      <point x="503" y="316"/>
      <point x="556" y="377"/>
      <point x="556" y="484" type="curve" smooth="yes"/>
      <point x="556" y="620"/>
      <point x="460" y="699"/>
      <point x="265" y="699" type="curve" smooth="yes"/>
      <point x="209" y="699"/>
      <point x="138" y="693"/>
      <point x="90" y="680" type="curve"/>
    </contour>
    <contour>
      <point x="158" y="327" type="line"/>
      <point x="158" y="633" type="line"/>
      <point x="183" y="636"/>
      <point x="218" y="640"/>
      <point x="268" y="640" type="curve" smooth="yes"/>
      <point x="378" y="640"/>
      <point x="485" y="607"/>
      <point x="485" y="485" type="curve" smooth="yes"/>
      <point x="485" y="403"/>
      <point x="446" y="361"/>
      <point x="380" y="342" type="curve"/>
      <point x="318" y="452" type="line"/>
      <point x="267" y="421" type="line"/>
      <point x="318" y="330" type="line"/>
      <point x="295" y="328"/>
      <point x="270" y="327"/>
      <point x="244" y="327" type="curve" smooth="yes"/>
    </contour>
  </outline>
</glyph>
<glyph name="uni0492" format="2">
  <advance width="496"/>
  <unicode hex="0492"/>
  <outline>
    <contour>
      <point x="104" y="0" type="line"/>
      <point x="172" y="0" type="line"/>
      <point x="172" y="327" type="line"/>
      <point x="321" y="327" type="line"/>
      <point x="321" y="382" type="line"/>
      <point x="172" y="382" type="line"/>
      <point x="172" y="634" type="line"/>
      <point x="478" y="634" type="line"/>
      <point x="478" y="693" type="line"/>
      <point x="104" y="693" type="line"/>
      <point x="104" y="382" type="line"/>
      <point x="24" y="382" type="line"/>
      <point x="24" y="327" type="line"/>
      <point x="104" y="327" type="line"/>
    </contour>
  </outline>
</glyph>
<glyph name="uni04A3" format="2">
  <advance width="587"/>
  <unicode hex="04A3"/>
  <outline>
    <contour>
      <point x="493" y="-143" type="line"/>
      <point x="556" y="-143" type="line"/>
      <point x="556" y="55" type="line"/>
      <point x="497" y="55" type="line"/>
      <point x="497" y="517" type="line"/>
      <point x="432" y="517" type="line"/>
      <point x="432" y="296" type="line"/>
      <point x="151" y="296" type="line"/>
      <point x="151" y="517" type="line"/>
      <point x="86" y="517" type="line"/>
      <point x="86" y="0" type="line"/>
      <point x="151" y="0" type="line"/>
      <point x="151" y="241" type="line"/>
      <point x="432" y="241" type="line"/>
      <point x="432" y="0" type="line"/>
      <point x="493" y="0" type="line"/>
    </contour>
  </outline>
</glyph>
<glyph name="uni04B0" format="2">
  <advance width="569"/>
  <unicode hex="04B0"/>
  <outline>
    <contour>
      <point x="251" y="0" type="line"/>
      <point x="319" y="0" type="line"/>
      <point x="319" y="223" type="line"/>
      <point x="465" y="223" type="line"/>
      <point x="465" y="277" type="line"/>
      <point x="319" y="277" type="line"/>
      <point x="319" y="287" type="line"/>
      <point x="411" y="428"/>
      <point x="489" y="567"/>
      <point x="559" y="693" type="curve"/>
      <point x="485" y="693" type="line"/>
      <point x="428" y="577"/>
      <point x="357" y="451"/>
      <point x="287" y="342" type="curve"/>
      <point x="214" y="451"/>
      <point x="144" y="577"/>
      <point x="89" y="693" type="curve"/>
      <point x="10" y="693" type="line"/>
      <point x="78" y="566"/>
      <point x="157" y="429"/>
      <point x="251" y="285" type="curve"/>
      <point x="251" y="277" type="line"/>
      <point x="105" y="277" type="line"/>
      <point x="105" y="223" type="line"/>
      <point x="251" y="223" type="line"/>
    </contour>
  </outline>
</glyph>
<glyph name="uni04C3" format="2">
  <advance width="598"/>
  <unicode hex="04C3"/>
  <outline>
    <contour>
      <point x="313" y="-185" type="curve"/>
      <point x="481" y="-185"/>
      <point x="560" y="-57"/>
      <point x="560" y="105" type="curve" smooth="yes"/>
      <point x="560" y="315"/>
      <point x="422" y="380"/>
      <point x="258" y="380" type="curve"/>
      <point x="351" y="470"/>
      <point x="487" y="613"/>
      <point x="559" y="693" type="curve"/>
      <point x="479" y="693" type="line"/>
      <point x="414" y="616"/>
      <point x="261" y="458"/>
      <point x="158" y="360" type="curve"/>
      <point x="158" y="693" type="line"/>
      <point x="90" y="693" type="line"/>
      <point x="90" y="0" type="line"/>
      <point x="158" y="0" type="line"/>
      <point x="158" y="320" type="line"/>
      <point x="181" y="324"/>
      <point x="203" y="326"/>
      <point x="225" y="326" type="curve" smooth="yes"/>
      <point x="318" y="326"/>
      <point x="490" y="323"/>
      <point x="490" y="106" type="curve" smooth="yes"/>
      <point x="490" y="-55"/>
      <point x="412" y="-126"/>
      <point x="306" y="-126" type="curve" smooth="yes"/>
      <point x="288" y="-126"/>
      <point x="271" y="-125"/>
      <point x="264" y="-123" type="curve"/>
      <point x="259" y="-181" type="line"/>
      <point x="267" y="-183"/>
      <point x="293" y="-185"/>
    </contour>
  </outline>
</glyph>
<glyph name="uni04C5" format="2">
  <advance width="688"/>
  <unicode hex="04C5"/>
  <outline>
    <contour>
      <point x="552" y="-188" type="line"/>
      <point x="608" y="-138"/>
      <point x="666" y="-40"/>
      <point x="660" y="59" type="curve"/>
      <point x="590" y="59" type="line"/>
      <point x="590" y="693" type="line"/>
      <point x="229" y="693" type="line"/>
      <point x="229" y="631" type="line" smooth="yes"/>
      <point x="229" y="463"/>
      <point x="221" y="326"/>
      <point x="186" y="219" type="curve" smooth="yes"/>
      <point x="152" y="115"/>
      <point x="106" y="61"/>
      <point x="14" y="50" type="curve"/>
      <point x="21" y="-8" type="line"/>
      <point x="151" y="-2"/>
      <point x="219" y="93"/>
      <point x="253" y="207" type="curve" smooth="yes"/>
      <point x="290" y="330"/>
      <point x="296" y="468"/>
      <point x="296" y="614" type="curve" smooth="yes"/>
      <point x="296" y="634" type="line"/>
      <point x="522" y="634" type="line"/>
      <point x="522" y="0" type="line"/>
      <point x="590" y="0" type="line"/>
      <point x="578" y="-66"/>
      <point x="530" y="-129"/>
      <point x="503" y="-153" type="curve"/>
    </contour>
  </outline>
</glyph>
<glyph name="uni04CC" format="2">
  <advance width="518"/>
  <unicode hex="04CC"/>
  <outline>
    <contour>
      <point x="308" y="-143" type="line"/>
      <point x="371" y="-143" type="line"/>
      <point x="371" y="0" type="line"/>
      <point x="432" y="0" type="line"/>
      <point x="432" y="517" type="line"/>
      <point x="367" y="517" type="line"/>
      <point x="367" y="268" type="line"/>
      <point x="341" y="259"/>
      <point x="307" y="251"/>
      <point x="239" y="251" type="curve" smooth="yes"/>
      <point x="158" y="251"/>
      <point x="113" y="281"/>
      <point x="113" y="377" type="curve" smooth="yes"/>
      <point x="113" y="517" type="line"/>
      <point x="48" y="517" type="line"/>
      <point x="48" y="373" type="line" smooth="yes"/>
      <point x="48" y="238"/>
      <point x="121" y="193"/>
      <point x="235" y="193" type="curve" smooth="yes"/>
      <point x="291" y="193"/>
      <point x="349" y="207"/>
      <point x="367" y="213" type="curve"/>
      <point x="367" y="55" type="line"/>
      <point x="308" y="55" type="line"/>
    </contour>
  </outline>
</glyph>
<glyph name="uni04CF" format="2">
  <advance width="237"/>
  <unicode hex="04CF"/>
  <anchor x="113" y="0" name="bottom"/>
  <anchor x="203" y="10" name="ogonek"/>
  <anchor x="113" y="693" name="top"/>
  <anchor x="20" y="693" name="topleft"/>
  <outline>
    <contour>
      <point x="86" y="0" type="line"/>
      <point x="151" y="0" type="line"/>
      <point x="151" y="693" type="line"/>
      <point x="86" y="693" type="line"/>
    </contour>
  </outline>
</glyph>
<glyph name="uni1FDD" format="2">
  <advance width="376"/>
  <unicode hex="1FDD"/>
  <anchor x="187" y="776" name="_top"/>
  <anchor x="187" y="777" name="top"/>
  <outline>
    <contour>
      <point x="304" y="575" type="line"/>
      <point x="344" y="604" type="line"/>
      <point x="232" y="777" type="line"/>
      <point x="175" y="738" type="line"/>
    </contour>
    <contour>
      <point x="141" y="575" type="curve"/>
      <point x="168" y="604" type="line"/>
      <point x="137" y="628"/>
      <point x="112" y="655"/>
      <point x="100" y="680" type="curve"/>
      <point x="121" y="687"/>
      <point x="135" y="705"/>
      <point x="135" y="726" type="curve" smooth="yes"/>
      <point x="135" y="753"/>
      <point x="117" y="776"/>
      <point x="85" y="776" type="curve" smooth="yes"/>
      <point x="52" y="776"/>
      <point x="30" y="754"/>
      <point x="30" y="719" type="curve" smooth="yes"/>
      <point x="30" y="671"/>
      <point x="85" y="613"/>
    </contour>
  </outline>
</glyph>
<glyph name="uni1FFD" format="2">
  <advance width="376"/>
  <unicode hex="1FFD"/>
  <anchor x="214" y="776" name="_top"/>
  <anchor x="214" y="773" name="top"/>
  <outline>
    <contour>
      <point x="145" y="583" type="line"/>
      <point x="316" y="722" type="line"/>
      <point x="270" y="773" type="line"/>
      <point x="112" y="621" type="line"/>
    </contour>
  </outline>
</glyph>
<glyph name="uni1FFE" format="2">
  <advance width="376"/>
  <unicode hex="1FFE"/>
  <anchor x="187" y="776" name="_top"/>
  <anchor x="187" y="776" name="top"/>
  <outline>
    <contour>
      <point x="229" y="575" type="curve"/>
      <point x="256" y="604" type="line"/>
      <point x="225" y="628"/>
      <point x="200" y="655"/>
      <point x="188" y="680" type="curve"/>
      <point x="209" y="687"/>
      <point x="223" y="705"/>
      <point x="223" y="726" type="curve" smooth="yes"/>
      <point x="223" y="753"/>
      <point x="205" y="776"/>
      <point x="173" y="776" type="curve" smooth="yes"/>
      <point x="140" y="776"/>
      <point x="118" y="754"/>
      <point x="118" y="719" type="curve" smooth="yes"/>
      <point x="118" y="671"/>
      <point x="173" y="613"/>
    </contour>
  </outline>
</glyph>
<glyph name="quoteright" format="2">
  <advance width="230"/>
  <unicode hex="2019"/>
  <outline>
    <contour>
      <point x="88" y="520" type="line"/>
      <point x="133" y="587"/>
      <point x="156" y="655"/>
      <point x="156" y="731" type="curve" smooth="yes"/>
      <point x="156" y="734"/>
      <point x="156" y="738"/>
      <point x="156" y="741" type="curve"/>
      <point x="83" y="741" type="line"/>
      <point x="84" y="729"/>
      <point x="84" y="720"/>
      <point x="84" y="705" type="curve" smooth="yes"/>
      <point x="84" y="659"/>
      <point x="73" y="606"/>
      <point x="40" y="542" type="curve"/>
    </contour>
  </outline>
</glyph>
<glyph name="quotedblright" format="2">
  <advance width="392"/>
  <unicode hex="201D"/>
  <outline>
    <contour>
      <point x="88" y="520" type="line"/>
      <point x="133" y="587"/>
      <point x="156" y="655"/>
      <point x="156" y="731" type="curve" smooth="yes"/>
      <point x="156" y="734"/>
      <point x="156" y="738"/>
      <point x="156" y="741" type="curve"/>
      <point x="83" y="741" type="line"/>
      <point x="84" y="729"/>
      <point x="84" y="720"/>
      <point x="84" y="705" type="curve" smooth="yes"/>
      <point x="84" y="659"/>
      <point x="73" y="606"/>
      <point x="40" y="542" type="curve"/>
    </contour>
    <contour>
      <point x="250" y="520" type="line"/>
      <point x="295" y="587"/>
      <point x="318" y="655"/>
      <point x="318" y="731" type="curve" smooth="yes"/>
      <point x="318" y="734"/>
      <point x="318" y="738"/>
      <point x="318" y="741" type="curve"/>
      <point x="245" y="741" type="line"/>
      <point x="246" y="729"/>
      <point x="246" y="720"/>
      <point x="246" y="705" type="curve" smooth="yes"/>
      <point x="246" y="659"/>
      <point x="235" y="606"/>
      <point x="202" y="542" type="curve"/>
    </contour>
  </outline>
</glyph>
<glyph name="fivesuperior" format="2">
  <advance width="359"/>
  <unicode hex="2075"/>
  <outline>
    <contour>
      <point x="150" y="309" type="curve" smooth="yes"/>
      <point x="259" y="309"/>
      <point x="305" y="357"/>
      <point x="305" y="425" type="curve" smooth="yes"/>
      <point x="305" y="503"/>
      <point x="249" y="544"/>
      <point x="127" y="552" type="curve"/>
      <point x="133" y="585"/>
      <point x="136" y="620"/>
      <point x="138" y="651" type="curve"/>
      <point x="286" y="651" type="line"/>
      <point x="286" y="699" type="line"/>
      <point x="92" y="699" type="line"/>
      <point x="89" y="627"/>
      <point x="83" y="576"/>
      <point x="73" y="509" type="curve"/>
      <point x="224" y="509"/>
      <point x="249" y="468"/>
      <point x="249" y="423" type="curve" smooth="yes"/>
      <point x="249" y="391"/>
      <point x="233" y="355"/>
      <point x="150" y="355" type="curve" smooth="yes"/>
      <point x="115" y="355"/>
      <point x="72" y="370"/>
      <point x="57" y="377" type="curve"/>
      <point x="46" y="331" type="line"/>
      <point x="64" y="321"/>
      <point x="110" y="309"/>
    </contour>
  </outline>
</glyph>
<glyph name="sevensuperior" format="2">
  <advance width="359"/>
  <unicode hex="2077"/>
  <outline>
    <contour>
      <point x="100" y="317" type="curve"/>
      <point x="153" y="317" type="line"/>
      <point x="161" y="452"/>
      <point x="261" y="606"/>
      <point x="316" y="658" type="curve"/>
      <point x="316" y="699" type="line"/>
      <point x="45" y="699" type="line"/>
      <point x="45" y="649" type="line"/>
      <point x="249" y="649" type="line"/>
      <point x="184" y="582"/>
      <point x="107" y="422"/>
    </contour>
  </outline>
</glyph>
<glyph name="partialdiff" format="2">
  <advance width="584"/>
  <unicode hex="2202"/>
  <outline>
    <contour>
      <point x="258" y="-13" type="curve" smooth="yes"/>
      <point x="461" y="-13"/>
      <point x="525" y="205"/>
      <point x="525" y="392" type="curve" smooth="yes"/>
      <point x="525" y="595"/>
      <point x="465" y="776"/>
      <point x="235" y="776" type="curve" smooth="yes"/>
      <point x="183" y="776"/>
      <point x="125" y="765"/>
      <point x="98" y="751" type="curve"/>
      <point x="110" y="693" type="line"/>
      <point x="130" y="703"/>
      <point x="167" y="716"/>
      <point x="222" y="716" type="curve" smooth="yes"/>
      <point x="394" y="716"/>
      <point x="449" y="596"/>
      <point x="455" y="436" type="curve"/>
      <point x="438" y="455"/>
      <point x="382" y="492"/>
      <point x="304" y="492" type="curve" smooth="yes"/>
      <point x="141" y="492"/>
      <point x="50" y="379"/>
      <point x="50" y="206" type="curve" smooth="yes"/>
      <point x="50" y="66"/>
      <point x="133" y="-13"/>
    </contour>
    <contour>
      <point x="263" y="47" type="curve" smooth="yes"/>
      <point x="177" y="47"/>
      <point x="119" y="96"/>
      <point x="119" y="211" type="curve" smooth="yes"/>
      <point x="119" y="326"/>
      <point x="170" y="432"/>
      <point x="304" y="432" type="curve" smooth="yes"/>
      <point x="355" y="432"/>
      <point x="410" y="419"/>
      <point x="456" y="369" type="curve"/>
      <point x="455" y="269"/>
      <point x="425" y="47"/>
    </contour>
  </outline>
</glyph>
<glyph name="product" format="2">
  <advance width="682"/>
  <unicode hex="220F"/>
  <outline>
    <contour>
      <point x="90" y="-109" type="line"/>
      <point x="158" y="-109" type="line"/>
      <point x="158" y="634" type="line"/>
      <point x="524" y="634" type="line"/>
      <point x="524" y="-109" type="line"/>
      <point x="592" y="-109" type="line"/>
      <point x="592" y="693" type="line"/>
      <point x="90" y="693" type="line"/>
    </contour>
  </outline>
</glyph>
<glyph name="notequal" format="2">
  <advance width="564"/>
  <unicode hex="2260"/>
  <outline>
    <contour>
      <point x="183" y="27" type="line"/>
      <point x="247" y="156" type="line"/>
      <point x="508" y="156" type="line"/>
      <point x="508" y="212" type="line"/>
      <point x="274" y="212" type="line"/>
      <point x="350" y="366" type="line"/>
      <point x="508" y="366" type="line"/>
      <point x="508" y="422" type="line"/>
      <point x="378" y="422" type="line"/>
      <point x="430" y="527" type="line"/>
      <point x="381" y="552" type="line"/>
      <point x="316" y="422" type="line"/>
      <point x="56" y="422" type="line"/>
      <point x="56" y="366" type="line"/>
      <point x="289" y="366" type="line"/>
      <point x="213" y="212" type="line"/>
      <point x="56" y="212" type="line"/>
      <point x="56" y="156" type="line"/>
      <point x="185" y="156" type="line"/>
      <point x="134" y="52" type="line"/>
    </contour>
  </outline>
</glyph>
<glyph name="lessequal" format="2">
  <advance width="564"/>
  <unicode hex="2264"/>
  <outline>
    <contour>
      <point x="488" y="144" type="line"/>
      <point x="508" y="199" type="line"/>
      <point x="131" y="357" type="line"/>
      <point x="508" y="515" type="line"/>
      <point x="488" y="570" type="line"/>
      <point x="55" y="386" type="line"/>
      <point x="55" y="328" type="line"/>
    </contour>
    <contour>
      <point x="56" y="-5" type="line"/>
      <point x="508" y="-5" type="line"/>
      <point x="508" y="51" type="line"/>
      <point x="56" y="51" type="line"/>
    </contour>
  </outline>
</glyph>
<glyph name="dieresis_acute" format="2">
  <advance width="376"/>
  <outline>
    <contour>
      <point x="185" y="679" type="line"/>
      <point x="290" y="803" type="line"/>
      <point x="244" y="845" type="line"/>
      <point x="148" y="709" type="line"/>
    </contour>
    <contour>
      <point x="83" y="594" type="curve" smooth="yes"/>
      <point x="109" y="594"/>
      <point x="129" y="613"/>
      <point x="129" y="642" type="curve" smooth="yes"/>
      <point x="129" y="671"/>
      <point x="109" y="690"/>
      <point x="83" y="690" type="curve" smooth="yes"/>
      <point x="57" y="690"/>
      <point x="37" y="671"/>
      <point x="37" y="642" type="curve" smooth="yes"/>
      <point x="37" y="613"/>
      <point x="57" y="594"/>
    </contour>
    <contour>
      <point x="292" y="594" type="curve" smooth="yes"/>
      <point x="318" y="594"/>
      <point x="338" y="613"/>
      <point x="338" y="642" type="curve" smooth="yes"/>
      <point x="338" y="671"/>
      <point x="318" y="690"/>
      <point x="292" y="690" type="curve" smooth="yes"/>
      <point x="266" y="690"/>
      <point x="246" y="671"/>
      <point x="246" y="642" type="curve" smooth="yes"/>
      <point x="246" y="613"/>
      <point x="266" y="594"/>
    </contour>
  </outline>
</glyph>
